<svg xmlns="http://www.w3.org/2000/svg" width="800" height="500">
  <rect width="100%" height="100%" fill="#f8fbff"/>
  <rect x="40" y="40" width="720" height="420" fill="#ffffff" stroke="#0b5fa5" stroke-width="2"/>
  <text x="52" y="70" font-family="Segoe UI, Arial" font-size="18" fill="#0b5fa5">Anunciar Imóvel</text>
  <rect x="60" y="90" width="680" height="34" fill="#eef5fc" stroke="#c9def5"/>
  <text x="70" y="112" font-family="Segoe UI, Arial" font-size="14" fill="#333">Título</text>
  <rect x="60" y="130" width="680" height="70" fill="#eef5fc" stroke="#c9def5"/>
  <text x="70" y="162" font-family="Segoe UI, Arial" font-size="14" fill="#333">Descrição</text>
  <rect x="60" y="210" width="220" height="34" fill="#eef5fc" stroke="#c9def5"/>
  <text x="70" y="232" font-family="Segoe UI, Arial" font-size="14" fill="#333">Valor</text>
  <rect x="300" y="210" width="220" height="34" fill="#eef5fc" stroke="#c9def5"/>
  <text x="310" y="232" font-family="Segoe UI, Arial" font-size="14" fill="#333">Quartos</text>
  <rect x="540" y="210" width="200" height="34" fill="#eef5fc" stroke="#c9def5"/>
  <text x="550" y="232" font-family="Segoe UI, Arial" font-size="14" fill="#333">Banheiros</text>
  <rect x="60" y="260" width="680" height="34" fill="#eef5fc" stroke="#c9def5"/>
  <text x="70" y="282" font-family="Segoe UI, Arial" font-size="14" fill="#333">Endereço/Bairro</text>
  <rect x="60" y="310" width="680" height="34" fill="#eef5fc" stroke="#c9def5"/>
  <text x="70" y="332" font-family="Segoe UI, Arial" font-size="14" fill="#333">Contato: Nome, E-mail, WhatsApp</text>
  <rect x="60" y="360" width="480" height="90" fill="#fff9e6" stroke="#f2cf66"/>
  <text x="70" y="385" font-family="Segoe UI, Arial" font-size="14" fill="#333">Galeria de Fotos (arraste ou selecione)</text>
  <rect x="560" y="360" width="180" height="36" fill="#0b5fa5"/>
  <text x="570" y="383" font-family="Segoe UI, Arial" font-size="14" fill="#fff">Salvar</text>
  <text x="560" y="410" font-family="Segoe UI, Arial" font-size="12" fill="#0b5fa5">Status: pendente até aprovação</text>
</svg>
